<svg viewBox="174.6 180 536.4 277.2" xmlns="http://www.w3.org/2000/svg" version="1.0"
     width="536.4" height="277.2">
  <g stroke="none" fill="#4f46e5" transform="translate(0.000000,900.000000) scale(0.100000,-0.100000)">
    <path
      d="M4365 7119 c-22 -4 -76 -13 -120 -18 -269 -32 -307 -44 -331 -100&#10;-18 -42 -18 -71 0 -106 33 -63 93 -77 216 -50 93 20 198 19 231 -3 49 -32 279&#10;-277 279 -296 -1 -12 -7 -16 -112 -89 -38 -26 -98 -68 -135 -94 -38 -26 -117&#10;-80 -178 -122 -60 -41 -128 -87 -151 -102 -40 -28 -41 -28 -100 -14 -32 8 -93&#10;21 -134 29 -41 8 -109 22 -150 30 -41 8 -113 22 -160 31 -47 9 -118 23 -157&#10;31 -40 8 -107 21 -148 29 -357 70 -491 97 -590 119 -110 24 -196 29 -225 14&#10;-14 -8 -34 -30 -45 -50 -17 -33 -18 -41 -6 -75 7 -21 32 -55 55 -76 77 -72&#10;241 -213 301 -260 126 -98 121 -92 101 -122 -10 -15 -181 -190 -380 -390 -342&#10;-343 -413 -405 -462 -405 -13 0 -79 -18 -134 -37 -20 -7 4 -16 95 -36 239 -53&#10;595 -56 855 -6 30 6 84 14 120 19 36 4 78 13 93 19 16 6 40 11 54 11 15 0 49&#10;6 77 14 28 8 80 22 116 31 36 9 85 22 110 29 25 8 72 21 105 31 33 10 71 22&#10;85 28 14 5 39 13 55 17 17 5 55 18 85 30 30 12 70 25 89 30 18 5 38 13 44 19&#10;6 6 20 11 32 11 12 0 30 7 41 15 10 8 27 15 36 15 9 0 29 6 45 14 15 8 48 22&#10;73 31 25 10 60 24 78 31 17 8 48 21 67 29 19 8 51 21 70 29 20 9 51 22 70 30&#10;20 9 50 22 68 30 49 21 257 106 300 122 20 8 55 21 77 29 22 8 58 22 80 30 45&#10;17 97 36 150 55 19 6 51 16 70 20 19 4 49 13 65 18 31 11 109 32 185 51 25 6&#10;76 16 113 21 38 5 85 14 105 19 61 16 328 36 482 36 162 0 384 -18 505 -41 44&#10;-8 100 -19 125 -24 25 -4 46 -7 48 -6 4 5 -44 51 -112 106 -38 30 -78 63 -90&#10;74 -93 80 -455 347 -506 373 -8 5 -53 33 -100 64 -138 91 -201 130 -235 149&#10;-11 6 -33 19 -50 30 -16 11 -39 24 -50 30 -11 6 -33 19 -50 29 -16 11 -50 31&#10;-75 44 -25 14 -61 34 -80 45 -151 89 -215 112 -316 112 -76 0 -84 2 -125 33&#10;-45 34 -66 49 -253 174 l-109 73 -71 -1 c-39 -1 -89 -5 -111 -10z"/>
    <path
      d="M5820 5643 c-146 -18 -345 -55 -485 -90 -190 -47 -261 -67 -313 -89&#10;-18 -8 -39 -14 -47 -14 -8 0 -29 -6 -47 -14 -33 -14 -91 -37 -158 -61 -56 -21&#10;-140 -55 -200 -82 -102 -45 -115 -51 -180 -81 -120 -56 -175 -80 -265 -117&#10;-49 -20 -99 -41 -109 -47 -11 -6 -31 -14 -45 -18 -14 -5 -51 -18 -81 -30 -30&#10;-12 -68 -25 -85 -30 -16 -5 -46 -14 -65 -21 -19 -6 -51 -17 -70 -24 -53 -19&#10;-212 -63 -315 -89 -237 -57 -476 -93 -695 -103 -163 -7 -185 -18 -68 -33 35&#10;-5 88 -13 118 -19 95 -18 289 -40 441 -51 204 -14 2450 -13 2538 1 71 11 168&#10;34 216 50 17 6 45 15 64 19 18 5 38 13 44 19 6 6 17 11 25 11 28 0 316 149&#10;410 211 24 16 45 29 47 29 7 0 172 117 257 182 96 73 247 216 271 256 17 30&#10;17 31 -7 59 -50 58 -251 139 -406 163 -30 5 -82 13 -115 19 -86 15 -536 11&#10;-675 -6z"/>
  </g>
</svg>
