<svg xmlns="http://www.w3.org/2000/svg" xmlns:xlink="http://www.w3.org/1999/xlink" width="200" zoomAndPan="magnify"
     viewBox="0 0 150 48" height="64" preserveAspectRatio="xMidYMid meet" version="1.0">
  <defs>
    <g/>
    <clipPath id="4e45176b58">
      <rect x="0" width="102" y="0" height="29"/>
    </clipPath>
  </defs>
  <path fill="#174c76"
        d="M 39.183594 37.421875 L 42.617188 35.425781 C 42.785156 35.324219 42.886719 35.144531 42.886719 34.957031 L 42.886719 12.210938 C 42.886719 12.019531 42.785156 11.828125 42.617188 11.738281 L 22.84375 0.253906 C 22.675781 0.15625 22.464844 0.15625 22.292969 0.253906 L 2.464844 11.628906 C 2.296875 11.730469 2.1875 11.90625 2.1875 12.109375 L 2.1875 35.078125 C 2.1875 35.28125 2.296875 35.460938 2.464844 35.5625 L 5.933594 37.480469 C 6.300781 37.679688 6.75 37.410156 6.75 36.996094 L 6.808594 14.722656 C 6.808594 14.53125 6.90625 14.34375 7.085938 14.253906 L 19.457031 7.109375 C 19.828125 6.894531 20.277344 7.164062 20.277344 7.578125 L 20.410156 35.023438 C 20.410156 35.214844 20.511719 35.390625 20.667969 35.480469 L 22.25 36.457031 C 22.417969 36.558594 22.632812 36.570312 22.8125 36.46875 L 24.480469 35.515625 C 24.648438 35.414062 24.761719 35.234375 24.761719 35.042969 L 24.875 7.558594 C 24.875 7.128906 25.335938 6.871094 25.703125 7.085938 L 38.128906 14.285156 C 38.296875 14.386719 38.398438 14.566406 38.398438 14.769531 L 38.332031 36.972656 C 38.355469 37.367188 38.816406 37.636719 39.183594 37.421875 Z M 39.183594 37.421875 "
        fill-opacity="1" fill-rule="nonzero"/>
  <path fill="#174c76"
        d="M 30.414062 14.96875 L 33.621094 16.855469 C 33.835938 16.976562 33.957031 17.203125 33.957031 17.449219 L 33.925781 40.113281 C 33.925781 40.359375 33.789062 40.585938 33.578125 40.707031 L 22.957031 46.84375 C 22.742188 46.964844 22.472656 46.964844 22.261719 46.84375 L 11.675781 40.640625 C 11.460938 40.519531 11.335938 40.292969 11.335938 40.046875 L 11.335938 17.390625 C 11.335938 17.144531 11.472656 16.921875 11.683594 16.796875 L 14.894531 14.957031 C 15.351562 14.699219 15.925781 15.027344 15.925781 15.554688 L 15.890625 37.5 C 15.890625 37.746094 16.027344 37.972656 16.238281 38.09375 L 22.273438 41.550781 C 22.484375 41.671875 22.742188 41.671875 22.945312 41.550781 L 29.136719 38.09375 C 29.347656 37.972656 29.496094 37.746094 29.484375 37.488281 L 29.371094 15.5625 C 29.371094 15.039062 29.953125 14.699219 30.414062 14.96875 Z M 30.414062 14.96875 "
        fill-opacity="1" fill-rule="nonzero"/>
  <g transform="matrix(1, 0, 0, 1, 46, 9)">
    <g clip-path="url(#4e45176b58)">
      <g fill="#00b5eb" fill-opacity="1">
        <g transform="translate(0.825994, 21.00762)">
          <g>
            <path
              d="M 13.21875 -14.25 L 13.21875 0 L 10.359375 0 L 10.359375 -6.0625 L 4.265625 -6.0625 L 4.265625 0 L 1.40625 0 L 1.40625 -14.25 L 4.265625 -14.25 L 4.265625 -8.390625 L 10.359375 -8.390625 L 10.359375 -14.25 Z M 13.21875 -14.25 "/>
          </g>
        </g>
      </g>
      <g fill="#00b5eb" fill-opacity="1">
        <g transform="translate(15.453204, 21.00762)">
          <g>
            <path
              d="M 12.21875 -11.3125 L 5.21875 5.34375 L 2.1875 5.34375 L 4.625 -0.28125 L 0.109375 -11.3125 L 3.3125 -11.3125 L 6.21875 -3.40625 L 9.1875 -11.3125 Z M 12.21875 -11.3125 "/>
          </g>
        </g>
      </g>
      <g fill="#00b5eb" fill-opacity="1">
        <g transform="translate(27.79555, 21.00762)">
          <g>
            <path
              d="M 4.265625 -9.671875 C 4.628906 -10.191406 5.132812 -10.625 5.78125 -10.96875 C 6.425781 -11.3125 7.164062 -11.484375 8 -11.484375 C 8.96875 -11.484375 9.84375 -11.242188 10.625 -10.765625 C 11.40625 -10.296875 12.019531 -9.617188 12.46875 -8.734375 C 12.925781 -7.859375 13.15625 -6.84375 13.15625 -5.6875 C 13.15625 -4.53125 12.925781 -3.503906 12.46875 -2.609375 C 12.019531 -1.722656 11.40625 -1.035156 10.625 -0.546875 C 9.84375 -0.0546875 8.96875 0.1875 8 0.1875 C 7.164062 0.1875 6.429688 0.015625 5.796875 -0.328125 C 5.171875 -0.671875 4.660156 -1.097656 4.265625 -1.609375 L 4.265625 5.390625 L 1.40625 5.390625 L 1.40625 -11.3125 L 4.265625 -11.3125 Z M 10.25 -5.6875 C 10.25 -6.375 10.109375 -6.960938 9.828125 -7.453125 C 9.546875 -7.953125 9.175781 -8.332031 8.71875 -8.59375 C 8.269531 -8.851562 7.78125 -8.984375 7.25 -8.984375 C 6.726562 -8.984375 6.238281 -8.847656 5.78125 -8.578125 C 5.320312 -8.316406 4.953125 -7.929688 4.671875 -7.421875 C 4.398438 -6.921875 4.265625 -6.332031 4.265625 -5.65625 C 4.265625 -4.96875 4.398438 -4.375 4.671875 -3.875 C 4.953125 -3.375 5.320312 -2.988281 5.78125 -2.71875 C 6.238281 -2.457031 6.726562 -2.328125 7.25 -2.328125 C 7.78125 -2.328125 8.269531 -2.460938 8.71875 -2.734375 C 9.175781 -3.003906 9.546875 -3.390625 9.828125 -3.890625 C 10.109375 -4.398438 10.25 -5 10.25 -5.6875 Z M 10.25 -5.6875 "/>
          </g>
        </g>
      </g>
      <g fill="#00b5eb" fill-opacity="1">
        <g transform="translate(41.627133, 21.00762)">
          <g>
            <path
              d="M 4.265625 -9.546875 C 4.628906 -10.148438 5.109375 -10.617188 5.703125 -10.953125 C 6.296875 -11.296875 6.972656 -11.46875 7.734375 -11.46875 L 7.734375 -8.46875 L 6.984375 -8.46875 C 6.078125 -8.46875 5.394531 -8.253906 4.9375 -7.828125 C 4.488281 -7.410156 4.265625 -6.675781 4.265625 -5.625 L 4.265625 0 L 1.40625 0 L 1.40625 -11.3125 L 4.265625 -11.3125 Z M 4.265625 -9.546875 "/>
          </g>
        </g>
      </g>
      <g fill="#174c76" fill-opacity="1">
        <g transform="translate(49.877203, 21.00762)">
          <g/>
        </g>
      </g>
      <g fill="#174c76" fill-opacity="1">
        <g transform="translate(54.732534, 21.00762)">
          <g>
            <path
              d="M 16.9375 -14.25 L 16.9375 0 L 14.078125 0 L 14.078125 -9.265625 L 10.265625 0 L 8.09375 0 L 4.265625 -9.265625 L 4.265625 0 L 1.40625 0 L 1.40625 -14.25 L 4.65625 -14.25 L 9.1875 -3.65625 L 13.71875 -14.25 Z M 16.9375 -14.25 "/>
          </g>
        </g>
      </g>
      <g fill="#174c76" fill-opacity="1">
        <g transform="translate(73.072637, 21.00762)">
          <g>
            <path
              d="M 0.71875 -7.140625 C 0.71875 -8.546875 1.03125 -9.800781 1.65625 -10.90625 C 2.289062 -12.007812 3.15625 -12.867188 4.25 -13.484375 C 5.34375 -14.109375 6.570312 -14.421875 7.9375 -14.421875 C 9.53125 -14.421875 10.925781 -14.015625 12.125 -13.203125 C 13.320312 -12.390625 14.15625 -11.257812 14.625 -9.8125 L 11.34375 -9.8125 C 11.019531 -10.488281 10.5625 -11 9.96875 -11.34375 C 9.375 -11.6875 8.691406 -11.859375 7.921875 -11.859375 C 7.085938 -11.859375 6.347656 -11.660156 5.703125 -11.265625 C 5.054688 -10.878906 4.550781 -10.332031 4.1875 -9.625 C 3.832031 -8.925781 3.65625 -8.097656 3.65625 -7.140625 C 3.65625 -6.203125 3.832031 -5.375 4.1875 -4.65625 C 4.550781 -3.945312 5.054688 -3.394531 5.703125 -3 C 6.347656 -2.613281 7.085938 -2.421875 7.921875 -2.421875 C 8.691406 -2.421875 9.375 -2.59375 9.96875 -2.9375 C 10.5625 -3.289062 11.019531 -3.804688 11.34375 -4.484375 L 14.625 -4.484375 C 14.15625 -3.035156 13.320312 -1.90625 12.125 -1.09375 C 10.9375 -0.28125 9.539062 0.125 7.9375 0.125 C 6.570312 0.125 5.34375 -0.179688 4.25 -0.796875 C 3.15625 -1.421875 2.289062 -2.285156 1.65625 -3.390625 C 1.03125 -4.492188 0.71875 -5.742188 0.71875 -7.140625 Z M 0.71875 -7.140625 "/>
          </g>
        </g>
      </g>
      <g fill="#174c76" fill-opacity="1">
        <g transform="translate(88.74027, 21.00762)">
          <g>
            <path
              d="M 11.796875 -9.828125 C 11.796875 -9.066406 11.613281 -8.351562 11.25 -7.6875 C 10.894531 -7.019531 10.332031 -6.484375 9.5625 -6.078125 C 8.789062 -5.671875 7.820312 -5.46875 6.65625 -5.46875 L 4.265625 -5.46875 L 4.265625 0 L 1.40625 0 L 1.40625 -14.25 L 6.65625 -14.25 C 7.757812 -14.25 8.695312 -14.054688 9.46875 -13.671875 C 10.238281 -13.285156 10.816406 -12.757812 11.203125 -12.09375 C 11.597656 -11.425781 11.796875 -10.671875 11.796875 -9.828125 Z M 6.53125 -7.78125 C 7.320312 -7.78125 7.90625 -7.957031 8.28125 -8.3125 C 8.664062 -8.675781 8.859375 -9.179688 8.859375 -9.828125 C 8.859375 -11.222656 8.082031 -11.921875 6.53125 -11.921875 L 4.265625 -11.921875 L 4.265625 -7.78125 Z M 6.53125 -7.78125 "/>
          </g>
        </g>
      </g>
    </g>
  </g>
</svg>
