<?xml version="1.0" encoding="utf-8" ?>
<svg baseProfile="full"
     viewBox="0 0 200 200"
     xmlns="http://www.w3.org/2000/svg"
>
  <defs/>
  <path
    d="M 99.61,43.36 99.41,43.55 97.66,43.55 97.46,43.75 95.51,43.75 95.31,43.95 93.75,43.95 93.55,44.14 92.19,44.14 91.99,44.34 90.43,44.34 90.23,44.53 89.26,44.53 89.06,44.73 88.67,44.73 88.48,44.92 88.28,44.92 88.09,45.12 87.89,45.12 87.50,45.51 87.50,45.70 87.11,46.09 87.11,46.48 86.91,46.68 86.91,48.05 87.11,48.24 87.11,48.63 88.09,49.61 88.28,49.61 88.48,49.80 89.06,49.80 89.26,50.00 89.45,49.80 90.62,49.80 90.82,49.61 91.80,49.61 91.99,49.41 92.97,49.41 93.16,49.22 94.14,49.22 94.34,49.02 95.31,49.02 95.51,48.83 95.70,48.83 95.90,49.02 96.48,49.02 96.68,49.22 96.88,49.22 98.24,50.59 98.24,50.78 100.20,52.73 100.20,52.93 102.34,55.08 102.34,55.27 103.32,56.25 103.32,56.45 102.73,57.03 102.54,57.03 102.15,57.42 101.95,57.42 101.56,57.81 101.37,57.81 100.98,58.20 100.78,58.20 100.20,58.79 100.00,58.79 99.61,59.18 99.41,59.18 99.02,59.57 98.83,59.57 98.44,59.96 98.24,59.96 97.85,60.35 97.66,60.35 97.27,60.74 97.07,60.74 96.68,61.13 96.48,61.13 95.90,61.72 95.70,61.72 95.31,62.11 95.12,62.11 94.73,62.50 94.53,62.50 94.14,62.89 93.95,62.89 93.55,63.28 93.36,63.28 92.97,63.67 92.77,63.67 92.38,64.06 92.19,64.06 91.80,64.45 91.60,64.45 91.02,65.04 90.82,65.04 90.43,65.43 90.23,65.43 89.84,65.82 89.26,65.82 89.06,65.62 88.09,65.62 87.89,65.43 87.11,65.43 86.91,65.23 86.13,65.23 85.94,65.04 84.96,65.04 84.77,64.84 83.98,64.84 83.79,64.65 82.81,64.65 82.62,64.45 81.84,64.45 81.64,64.26 80.86,64.26 80.66,64.06 79.88,64.06 79.69,63.87 78.71,63.87 78.52,63.67 77.73,63.67 77.54,63.48 76.95,63.48 76.76,63.28 75.98,63.28 75.78,63.09 75.00,63.09 74.80,62.89 74.02,62.89 73.83,62.70 73.24,62.70 73.05,62.50 72.27,62.50 72.07,62.30 71.09,62.30 70.90,62.11 70.12,62.11 69.92,61.91 69.14,61.91 68.95,61.72 68.16,61.72 67.97,61.52 67.19,61.52 66.99,61.33 66.21,61.33 66.02,61.13 65.23,61.13 65.04,60.94 64.26,60.94 64.06,60.74 63.28,60.74 63.09,60.55 62.30,60.55 62.11,60.35 61.52,60.35 61.33,60.16 60.55,60.16 60.35,59.96 59.57,59.96 59.38,59.77 58.59,59.77 58.40,59.57 57.62,59.57 57.42,59.38 56.64,59.38 56.45,59.18 55.66,59.18 55.47,58.98 54.30,58.98 54.10,59.18 53.71,59.18 53.32,59.57 53.12,59.57 52.54,60.16 52.54,60.35 52.34,60.55 52.34,60.74 52.15,60.94 52.15,62.11 52.34,62.30 52.34,62.50 54.10,64.26 54.30,64.26 55.47,65.43 55.66,65.43 57.23,66.99 57.42,66.99 58.59,68.16 58.79,68.16 59.96,69.34 60.16,69.34 61.33,70.51 61.52,70.51 62.89,71.88 62.89,72.07 61.33,73.63 61.33,73.83 55.47,79.69 55.47,79.88 48.83,86.52 48.63,86.52 46.88,88.28 46.68,88.28 45.31,89.65 45.12,89.65 44.92,89.84 44.53,89.84 44.34,90.04 43.75,90.04 43.55,90.23 42.97,90.23 42.77,90.43 41.99,90.43 41.80,90.62 41.02,90.62 40.82,90.82 40.23,90.82 40.62,90.82 40.82,91.02 41.41,91.02 41.60,91.21 42.19,91.21 42.38,91.41 42.97,91.41 43.16,91.60 43.95,91.60 44.14,91.80 45.12,91.80 45.31,91.99 46.68,91.99 46.88,92.19 55.27,92.19 55.47,91.99 57.81,91.99 58.01,91.80 59.96,91.80 60.16,91.60 61.72,91.60 61.91,91.41 63.09,91.41 63.28,91.21 64.45,91.21 64.65,91.02 65.43,91.02 65.62,90.82 66.41,90.82 66.60,90.62 67.38,90.62 67.58,90.43 68.16,90.43 68.36,90.23 69.14,90.23 69.34,90.04 69.73,90.04 69.92,89.84 70.70,89.84 70.90,89.65 71.29,89.65 71.48,89.45 72.07,89.45 72.27,89.26 72.66,89.26 72.85,89.06 73.24,89.06 73.44,88.87 74.02,88.87 74.22,88.67 74.61,88.67 74.80,88.48 75.39,88.48 75.59,88.28 76.17,88.28 76.37,88.09 76.76,88.09 76.95,87.89 77.54,87.89 77.73,87.70 78.12,87.70 78.32,87.50 78.71,87.50 78.91,87.30 79.30,87.30 79.49,87.11 79.88,87.11 80.08,86.91 80.66,86.91 80.86,86.72 81.05,86.72 81.25,86.52 81.64,86.52 81.84,86.33 82.23,86.33 82.42,86.13 82.81,86.13 83.01,85.94 83.40,85.94 83.59,85.74 83.98,85.74 84.18,85.55 84.38,85.55 84.57,85.35 84.96,85.35 85.16,85.16 85.35,85.16 85.55,84.96 85.94,84.96 86.13,84.77 86.33,84.77 86.52,84.57 86.91,84.57 87.11,84.38 87.50,84.38 87.70,84.18 87.89,84.18 88.09,83.98 88.48,83.98 88.67,83.79 88.87,83.79 89.06,83.59 89.45,83.59 89.65,83.40 90.04,83.40 90.23,83.20 90.43,83.20 90.62,83.01 91.02,83.01 91.21,82.81 91.41,82.81 91.60,82.62 91.99,82.62 92.19,82.42 92.38,82.42 92.58,82.23 92.97,82.23 93.16,82.03 93.36,82.03 93.55,81.84 93.95,81.84 94.14,81.64 94.34,81.64 94.53,81.45 94.92,81.45 95.12,81.25 95.31,81.25 95.51,81.05 95.90,81.05 96.09,80.86 96.29,80.86 96.48,80.66 96.88,80.66 97.07,80.47 97.27,80.47 97.46,80.27 97.66,80.27 97.85,80.08 98.24,80.08 98.44,79.88 98.63,79.88 98.83,79.69 99.22,79.69 99.41,79.49 99.61,79.49 99.80,79.30 100.00,79.30 100.20,79.10 100.59,79.10 100.78,78.91 100.98,78.91 101.17,78.71 101.56,78.71 101.76,78.52 101.95,78.52 102.15,78.32 102.34,78.32 102.54,78.12 102.93,78.12 103.12,77.93 103.32,77.93 103.52,77.73 103.91,77.73 104.10,77.54 104.30,77.54 104.49,77.34 104.88,77.34 105.08,77.15 105.27,77.15 105.47,76.95 105.86,76.95 106.05,76.76 106.25,76.76 106.45,76.56 106.84,76.56 107.03,76.37 107.42,76.37 107.62,76.17 108.01,76.17 108.20,75.98 108.40,75.98 108.59,75.78 108.98,75.78 109.18,75.59 109.57,75.59 109.77,75.39 110.16,75.39 110.35,75.20 110.74,75.20 110.94,75.00 111.52,75.00 111.72,74.80 112.11,74.80 112.30,74.61 112.70,74.61 112.89,74.41 113.28,74.41 113.48,74.22 114.06,74.22 114.26,74.02 114.65,74.02 114.84,73.83 115.43,73.83 115.62,73.63 116.21,73.63 116.41,73.44 116.99,73.44 117.19,73.24 117.77,73.24 117.97,73.05 118.75,73.05 118.95,72.85 119.73,72.85 119.92,72.66 120.70,72.66 120.90,72.46 121.88,72.46 122.07,72.27 123.05,72.27 123.24,72.07 124.41,72.07 124.61,71.88 126.37,71.88 126.56,71.68 128.91,71.68 129.10,71.48 131.84,71.48 132.03,71.29 134.57,71.29 134.77,71.48 138.48,71.48 138.67,71.68 141.41,71.68 141.60,71.88 143.16,71.88 143.36,72.07 144.73,72.07 144.92,72.27 145.90,72.27 146.09,72.46 146.88,72.46 147.07,72.66 147.85,72.66 148.05,72.85 148.63,72.85 148.83,73.05 149.41,73.05 149.22,72.85 149.02,72.85 148.63,72.46 148.44,72.46 147.66,71.68 147.46,71.68 146.48,70.70 146.29,70.70 145.31,69.73 145.12,69.73 144.14,68.75 143.95,68.75 142.97,67.77 142.77,67.77 141.99,66.99 141.80,66.99 141.02,66.21 140.82,66.21 140.23,65.62 140.04,65.62 139.45,65.04 139.26,65.04 138.67,64.45 138.48,64.45 137.89,63.87 137.70,63.87 137.11,63.28 136.91,63.28 136.52,62.89 136.33,62.89 135.94,62.50 135.74,62.50 135.16,61.91 134.96,61.91 134.57,61.52 134.38,61.52 133.98,61.13 133.79,61.13 133.40,60.74 133.20,60.74 132.81,60.35 132.62,60.35 132.23,59.96 132.03,59.96 131.64,59.57 131.45,59.57 131.05,59.18 130.86,59.18 130.47,58.79 130.27,58.79 129.88,58.40 129.69,58.40 129.49,58.20 129.30,58.20 128.91,57.81 128.71,57.81 128.52,57.62 128.32,57.62 127.93,57.23 127.73,57.23 127.54,57.03 127.34,57.03 126.95,56.64 126.76,56.64 126.56,56.45 126.37,56.45 125.98,56.05 125.78,56.05 125.59,55.86 125.39,55.86 125.00,55.47 124.80,55.47 124.61,55.27 124.41,55.27 124.22,55.08 124.02,55.08 123.63,54.69 123.44,54.69 123.24,54.49 123.05,54.49 122.66,54.10 122.46,54.10 122.27,53.91 122.07,53.91 121.68,53.52 121.48,53.52 121.29,53.32 121.09,53.32 120.70,52.93 120.51,52.93 120.31,52.73 120.12,52.73 119.73,52.34 119.53,52.34 119.34,52.15 119.14,52.15 118.95,51.95 118.75,51.95 118.36,51.56 118.16,51.56 117.97,51.37 117.77,51.37 117.58,51.17 117.38,51.17 117.19,50.98 116.99,50.98 116.80,50.78 116.60,50.78 116.21,50.39 116.02,50.39 115.82,50.20 115.43,50.20 115.23,50.00 115.04,50.00 114.84,49.80 114.45,49.80 114.26,49.61 113.67,49.61 113.48,49.41 111.72,49.41 111.52,49.61 111.13,49.61 110.94,49.80 110.74,49.80 110.55,49.61 110.35,49.61 109.96,49.22 109.77,49.22 109.18,48.63 108.98,48.63 108.59,48.24 108.40,48.24 108.01,47.85 107.81,47.85 107.42,47.46 107.23,47.46 106.84,47.07 106.64,47.07 106.25,46.68 106.05,46.68 105.47,46.09 105.27,46.09 104.88,45.70 104.69,45.70 104.30,45.31 104.10,45.31 103.71,44.92 103.52,44.92 103.12,44.53 102.93,44.53 102.54,44.14 102.34,44.14 101.95,43.75 101.76,43.75 101.56,43.55 100.98,43.55 100.78,43.36 Z"
    fill="black"/>
</svg>
