<svg xmlns="http://www.w3.org/2000/svg" width="1200" height="630" viewBox="0 0 1200 630">
  <!-- Cyberpunk gradient background -->
  <defs>
    <linearGradient id="bg-gradient-auth" x1="0%" y1="0%" x2="100%" y2="100%">
      <stop offset="0%" style="stop-color:#ff00ff;stop-opacity:1" />
      <stop offset="50%" style="stop-color:#00ffff;stop-opacity:1" />
      <stop offset="100%" style="stop-color:#ff00ff;stop-opacity:1" />
    </linearGradient>
    <linearGradient id="dark-gradient" x1="0%" y1="0%" x2="100%" y2="100%">
      <stop offset="0%" style="stop-color:#0a0e27;stop-opacity:1" />
      <stop offset="100%" style="stop-color:#1a0033;stop-opacity:1" />
    </linearGradient>
    <!-- Neon glow -->
    <filter id="neon-glow">
      <feGaussianBlur stdDeviation="4" result="coloredBlur"/>
      <feMerge>
        <feMergeNode in="coloredBlur"/>
        <feMergeNode in="SourceGraphic"/>
      </feMerge>
    </filter>
    <!-- Grid pattern -->
    <pattern id="cyber-grid" width="30" height="30" patternUnits="userSpaceOnUse">
      <path d="M 30 0 L 0 0 0 30" fill="none" stroke="#00ffff" stroke-width="0.5" opacity="0.2"/>
    </pattern>
  </defs>
  
  <!-- Dark background -->
  <rect width="1200" height="630" fill="url(#dark-gradient)"/>
  <rect width="1200" height="630" fill="url(#cyber-grid)"/>
  
  <!-- Cyberpunk circuit lines -->
  <g opacity="0.3">
    <path d="M 0 200 L 300 200 L 350 250 L 600 250" stroke="#ff00ff" stroke-width="2" fill="none"/>
    <path d="M 1200 400 L 900 400 L 850 350 L 600 350" stroke="#00ffff" stroke-width="2" fill="none"/>
    <path d="M 200 0 L 200 150 L 400 150 L 400 300" stroke="#ff00ff" stroke-width="1" fill="none"/>
    <path d="M 1000 630 L 1000 480 L 800 480 L 800 330" stroke="#00ffff" stroke-width="1" fill="none"/>
    <circle cx="350" cy="250" r="4" fill="#ff00ff"/>
    <circle cx="850" cy="350" r="4" fill="#00ffff"/>
    <circle cx="400" cy="150" r="3" fill="#ff00ff"/>
    <circle cx="800" cy="480" r="3" fill="#00ffff"/>
  </g>
  
  <!-- Central authentication lock icon with neon effect -->
  <g transform="translate(600, 180)" filter="url(#neon-glow)">
    <!-- Lock body -->
    <rect x="-60" y="0" width="120" height="80" rx="8" fill="none" stroke="#00ffff" stroke-width="3"/>
    <!-- Lock shackle -->
    <path d="M -40 0 L -40 -30 Q -40 -60 -10 -60 L 10 -60 Q 40 -60 40 -30 L 40 0" 
          fill="none" stroke="#00ffff" stroke-width="3"/>
    <!-- Keyhole -->
    <circle cx="0" cy="35" r="8" fill="#00ffff"/>
    <rect x="-4" y="35" width="8" height="20" fill="#00ffff"/>
    
    <!-- Digital authentication waves -->
    <g opacity="0.6">
      <circle cx="0" cy="40" r="100" fill="none" stroke="#ff00ff" stroke-width="1" opacity="0.4">
        <animate attributeName="r" values="100;140;100" dur="2s" repeatCount="indefinite"/>
        <animate attributeName="opacity" values="0.4;0.1;0.4" dur="2s" repeatCount="indefinite"/>
      </circle>
      <circle cx="0" cy="40" r="80" fill="none" stroke="#00ffff" stroke-width="1" opacity="0.5">
        <animate attributeName="r" values="80;120;80" dur="2s" begin="0.5s" repeatCount="indefinite"/>
        <animate attributeName="opacity" values="0.5;0.1;0.5" dur="2s" begin="0.5s" repeatCount="indefinite"/>
      </circle>
      <circle cx="0" cy="40" r="60" fill="none" stroke="#ff00ff" stroke-width="1" opacity="0.6">
        <animate attributeName="r" values="60;100;60" dur="2s" begin="1s" repeatCount="indefinite"/>
        <animate attributeName="opacity" values="0.6;0.1;0.6" dur="2s" begin="1s" repeatCount="indefinite"/>
      </circle>
    </g>
  </g>
  
  <!-- OAuth flow arrows with neon -->
  <g opacity="0.8">
    <!-- Left arrow -->
    <g transform="translate(350, 220)">
      <path d="M 0 0 L -50 0 L -45 -5 M -50 0 L -45 5" stroke="#ff00ff" stroke-width="2" fill="none" filter="url(#neon-glow)"/>
      <text x="-25" y="-10" font-family="monospace" font-size="12" fill="#ff00ff" text-anchor="middle">CLIENT</text>
    </g>
    
    <!-- Right arrow -->
    <g transform="translate(850, 220)">
      <path d="M 0 0 L 50 0 L 45 -5 M 50 0 L 45 5" stroke="#00ffff" stroke-width="2" fill="none" filter="url(#neon-glow)"/>
      <text x="25" y="-10" font-family="monospace" font-size="12" fill="#00ffff" text-anchor="middle">SERVER</text>
    </g>
  </g>
  
  <!-- Main Title (Two Lines) -->
  <text x="600" y="360" font-family="system-ui, -apple-system, sans-serif" font-size="56" font-weight="bold" text-anchor="middle" fill="white">
    MCP Server
  </text>
  <text x="600" y="420" font-family="system-ui, -apple-system, sans-serif" font-size="56" font-weight="bold" text-anchor="middle" fill="white">
    Authentication
  </text>
  
  <!-- Three Subheadings in Original Style -->
  <text x="600" y="470" font-family="monospace" font-size="16" text-anchor="middle" fill="#00ffff" opacity="0.9" filter="url(#neon-glow)">
    DYNAMIC CLIENT REGISTRATION
  </text>
  <text x="600" y="495" font-family="monospace" font-size="16" text-anchor="middle" fill="#00ffff" opacity="0.9" filter="url(#neon-glow)">
    AUTHORIZATION SERVER METADATA
  </text>
  <text x="600" y="520" font-family="monospace" font-size="16" text-anchor="middle" fill="#00ffff" opacity="0.9" filter="url(#neon-glow)">
    CROSS-ORIGIN RESOURCE SHARING
  </text>
  
  <!-- Stamps/Badges -->
  <g transform="translate(120, 350)">
    <!-- Plug-in Gateway stamp -->
    <rect x="-70" y="-20" width="140" height="40" rx="20" fill="none" stroke="#00ffff" stroke-width="2" opacity="0.8"/>
    <text x="0" y="5" font-family="monospace" font-size="14" fill="#00ffff" text-anchor="middle" font-weight="bold">PLUG-IN GATEWAY</text>
  </g>
  
  <g transform="translate(1080, 350)">
    <!-- Without Code Changes stamp -->
    <rect x="-80" y="-20" width="160" height="40" rx="20" fill="none" stroke="#ff00ff" stroke-width="2" opacity="0.8"/>
    <text x="0" y="5" font-family="monospace" font-size="14" fill="#ff00ff" text-anchor="middle" font-weight="bold">NO CODE CHANGES</text>
  </g>
  
  <!-- Binary rain effect (subtle) -->
  <g font-family="monospace" font-size="10" fill="#00ff00" opacity="0.15">
    <text x="100" y="50">
      <animate attributeName="y" values="50;650;50" dur="8s" repeatCount="indefinite"/>
      01101001
    </text>
    <text x="250" y="100">
      <animate attributeName="y" values="100;700;100" dur="9s" repeatCount="indefinite"/>
      10110010
    </text>
    <text x="400" y="30">
      <animate attributeName="y" values="30;630;30" dur="7s" repeatCount="indefinite"/>
      11010011
    </text>
    <text x="800" y="80">
      <animate attributeName="y" values="80;680;80" dur="10s" repeatCount="indefinite"/>
      00101101
    </text>
    <text x="950" y="120">
      <animate attributeName="y" values="120;720;120" dur="8.5s" repeatCount="indefinite"/>
      10011011
    </text>
    <text x="1100" y="60">
      <animate attributeName="y" values="60;660;60" dur="9.5s" repeatCount="indefinite"/>
      01110100
    </text>
  </g>
  
  <!-- Corner decorations -->
  <g stroke="#ff00ff" stroke-width="2" fill="none" opacity="0.6">
    <path d="M 20 20 L 60 20 M 20 20 L 20 60"/>
    <path d="M 1180 20 L 1140 20 M 1180 20 L 1180 60"/>
    <path d="M 20 610 L 60 610 M 20 610 L 20 570"/>
    <path d="M 1180 610 L 1140 610 M 1180 610 L 1180 570"/>
  </g>
  
  <!-- Tech elements -->
  <g opacity="0.4" font-family="monospace" font-size="8" fill="#00ffff">
    <text x="50" y="580">PROTOCOL://MCP.AUTH.2025</text>
    <text x="1100" y="580">GATEWAY.ENABLED:TRUE</text>
    <text x="50" y="50">DCR.ACTIVE</text>
    <text x="1120" y="50">ASM.PROXY</text>
  </g>
</svg>